<svg xmlns="http://www.w3.org/2000/svg" viewBox="0 0 1200 800">
  <defs>
    <linearGradient id="grad5" x1="0%" y1="0%" x2="100%" y2="100%">
      <stop offset="0%" style="stop-color:#ff9a56;stop-opacity:1" />
      <stop offset="100%" style="stop-color:#ff6a88;stop-opacity:1" />
    </linearGradient>
  </defs>
  <rect width="1200" height="800" fill="url(#grad5)"/>

  <!-- Checklist -->
  <g transform="translate(400, 200)">
    <rect width="400" height="400" fill="white" opacity="0.95" rx="8"/>

    <!-- Item 1 -->
    <rect x="20" y="20" width="20" height="20" fill="#06b6d4" rx="2"/>
    <path d="M 25 25 L 30 32 L 37 22" stroke="white" stroke-width="2" fill="none" stroke-linecap="round" stroke-linejoin="round"/>
    <line x1="50" y1="20" x2="370" y2="20" stroke="#ddd" stroke-width="1"/>
    <line x1="50" y1="40" x2="370" y2="40" stroke="#ddd" stroke-width="1"/>

    <!-- Item 2 -->
    <rect x="20" y="70" width="20" height="20" fill="#06b6d4" rx="2"/>
    <path d="M 25 75 L 30 82 L 37 72" stroke="white" stroke-width="2" fill="none" stroke-linecap="round" stroke-linejoin="round"/>
    <line x1="50" y1="70" x2="370" y2="70" stroke="#ddd" stroke-width="1"/>
    <line x1="50" y1="90" x2="370" y2="90" stroke="#ddd" stroke-width="1"/>

    <!-- Item 3 -->
    <rect x="20" y="120" width="20" height="20" fill="#06b6d4" rx="2"/>
    <path d="M 25 125 L 30 132 L 37 122" stroke="white" stroke-width="2" fill="none" stroke-linecap="round" stroke-linejoin="round"/>
    <line x1="50" y1="120" x2="370" y2="120" stroke="#ddd" stroke-width="1"/>
    <line x1="50" y1="140" x2="370" y2="140" stroke="#ddd" stroke-width="1"/>

    <!-- Item 4 -->
    <rect x="20" y="170" width="20" height="20" fill="#fbbf24" rx="2"/>
    <text x="30" y="180" font-size="12" fill="#f59e0b" text-anchor="middle" font-weight="bold">?</text>
    <line x1="50" y1="170" x2="370" y2="170" stroke="#ddd" stroke-width="1"/>
    <line x1="50" y1="190" x2="370" y2="190" stroke="#ddd" stroke-width="1"/>

    <!-- Item 5 -->
    <rect x="20" y="220" width="20" height="20" fill="#fbbf24" rx="2"/>
    <text x="30" y="230" font-size="12" fill="#f59e0b" text-anchor="middle" font-weight="bold">?</text>
    <line x1="50" y1="220" x2="370" y2="220" stroke="#ddd" stroke-width="1"/>
    <line x1="50" y1="240" x2="370" y2="240" stroke="#ddd" stroke-width="1"/>

    <!-- Progress -->
    <text x="200" y="330" font-size="16" fill="#667eea" text-anchor="middle" font-weight="bold">3 / 5 complétés</text>
    <rect x="50" y="350" width="300" height="30" fill="#e5e7eb" rx="4"/>
    <rect x="50" y="350" width="180" height="30" fill="#06b6d4" rx="4"/>
  </g>
</svg>